<?xml version="1.0" encoding="UTF-8"?>
<!-- Generator: visioncortex VTracer 0.6.4 -->
<svg version="1.1" xmlns="http://www.w3.org/2000/svg" width="16" height="16">
<path d="M0 0 C5.28 0 10.56 0 16 0 C16 5.28 16 10.56 16 16 C10.719999999999999 16 5.4399999999999995 16 0 16 C0 10.719999999999999 0 5.4399999999999995 0 0 Z " fill="#2C2C28" transform="translate(0,0)"/>
<path d="M0 0 C0 5.28 0 10.56 0 16 C-0.9900000000000002 15.67 -1.9800000000000004 15.34 -3 15 C-3.33 12.36 -3.66 9.719999999999999 -4 7 C-4.33 8.65 -4.66 10.3 -5 12 C-5.33 12 -5.66 12 -6 12 C-6.33 10.35 -6.66 8.7 -7 7 C-8.32 7 -9.64 7 -11 7 C-11 6.01 -11 5.02 -11 4 C-11.99 3.67 -12.98 3.34 -14 3 C-10.397091734947496 -1.6850104060921627 -5.433688515322327 -0.19177724171725857 0 0 Z " fill="#585958" transform="translate(16,0)"/>
<path d="M0 0 C1.6500000000000001 0 3.3000000000000003 0 5 0 C4.01 1.4849999999999999 4.01 1.4849999999999999 3 3 C3.99 3 4.98 3 6 3 C5.535937499999999 4.3303125 5.535937499999999 4.3303125 5.0625 5.6875 C3.94934537555157 8.869332995877183 3.94934537555157 8.869332995877183 3.5625 11.75 C3 14 3 14 0 16 C0 10.719999999999999 0 5.4399999999999995 0 0 Z " fill="#545552" transform="translate(0,0)"/>
<path d="M0 0 C0.9938671874999994 0.0270703125 1.9877343750000005 0.054140625 3.01171875 0.08203125 C4.150605468749999 0.13423828125 4.150605468749999 0.13423828125 5.3125 0.1875 C5.3125 1.1775 5.3125 2.1675 5.3125 3.1875 C3.73324025064945 3.579301082854144 2.148812055727511 3.950307362998632 0.5625 4.3125 C-0.3192187499999992 4.521328125 -1.2009375000000002 4.73015625 -2.109375 4.9453125 C-5.016254931312844 5.2183830390021155 -6.254113481970451 4.722580280065369 -8.6875 3.1875 C-6.102913539862372 -0.1733445095987589 -4.110820427996728 -0.14508777981164922 0 0 Z " fill="#8A8678" transform="translate(10.6875,-0.1875)"/>
<path d="M0 0 C1.3200000000000003 0 2.6400000000000006 0 4 0 C4 2.3100000000000005 4 4.620000000000001 4 7 C2.3499999999999996 7 0.6999999999999993 7 -1 7 C-0.6699999999999999 4.6899999999999995 -0.33999999999999986 2.379999999999999 0 0 Z " fill="#585957" transform="translate(5,9)"/>
<path d="M0 0 C3.96 0 7.92 0 12 0 C11.67 0.6600000000000001 11.34 1.3200000000000003 11 2 C4.957244655581948 3.3681710213776714 4.957244655581948 3.3681710213776714 1.5625 2.0625 C1.046875 1.711875 0.53125 1.36125 0 1 C0 0.6699999999999999 0 0.33999999999999986 0 0 Z " fill="#FDFAF6" transform="translate(2,2)"/>
<path d="M0 0 C1.4849999999999994 0.9900000000000002 1.4849999999999994 0.9900000000000002 3 2 C3.1875 5.1250000000000036 3.1875 5.1250000000000036 3 8 C2.01 7.67 1.0199999999999996 7.34 0 7 C-0.3813329872454947 5.008594399940199 -0.7132558244319132 3.0072092289766132 -1 1 C-0.6699999999999999 0.6699999999999999 -0.33999999999999986 0.33999999999999986 0 0 Z " fill="#848586" transform="translate(13,8)"/>
<path d="M0 0 C0.6600000000000001 0.33000000000000007 1.3200000000000003 0.6600000000000001 2 1 C1.6875 3.375 1.6875 3.375 1 6 C-0.4850000000000001 6.99 -0.4850000000000001 6.99 -2 8 C-2.125 5.125 -2.125 5.125 -2 2 C-1.3399999999999999 1.3399999999999999 -0.6799999999999999 0.6799999999999997 0 0 Z " fill="#5E605E" transform="translate(2,8)"/>
<path d="M0 0 C0.9105853143979203 3.073225436092981 1.088861844267317 5.800973606376626 1 9 C1.6600000000000001 9.33 2.3200000000000003 9.66 3 10 C1.6799999999999997 10.33 0.35999999999999943 10.66 -1 11 C-2.600801511610708 6.99799622097323 -1.2927969212255501 3.954437641395799 0 0 Z " fill="#343533" transform="translate(12,5)"/>
<path d="M0 0 C0 2.3100000000000005 0 4.620000000000001 0 7 C-0.33000000000000007 7 -0.6600000000000001 7 -1 7 C-1.33 5.35 -1.6600000000000001 3.6999999999999993 -2 2 C-3.3200000000000003 2 -4.640000000000001 2 -6 2 C-6 1.3399999999999999 -6 0.6799999999999997 -6 0 C-3.5090718940470964 -1.2454640529764518 -2.5891926687883533 -0.7767578006365055 0 0 Z " fill="#A09F9A" transform="translate(11,5)"/>
</svg>
