<?xml version="1.0" encoding="UTF-8"?>
<!-- Generator: visioncortex VTracer 0.6.4 -->
<svg version="1.1" xmlns="http://www.w3.org/2000/svg" width="32" height="32">
<path d="M0 0 C10.56 0 21.12 0 32 0 C32 10.56 32 21.12 32 32 C21.439999999999998 32 10.879999999999999 32 0 32 C0 21.439999999999998 0 10.879999999999999 0 0 Z " fill="#353633" transform="translate(0,0)"/>
<path d="M0 0 C0.8071142578125006 0.0024975585937500044 1.6142285156250011 0.004995117187499995 2.44580078125 0.007568359375 C3.9846997070312504 0.021224365234375 3.9846997070312504 0.021224365234375 5.5546875 0.03515625 C10.442812499999999 0.06609375 10.442812499999999 0.06609375 15.4296875 0.09765625 C15.4296875 8.34765625 15.4296875 16.59765625 15.4296875 25.09765625 C12.7896875 24.76765625 10.149687499999999 24.43765625 7.4296875 24.09765625 C7.759687499999998 20.13765625 8.0896875 16.17765625 8.4296875 12.09765625 C6.2715736169915814 13.044951622330522 6.2715736169915814 13.044951622330522 4.4296875 15.09765625 C4.4296875 14.43765625 4.4296875 13.77765625 4.4296875 13.09765625 C3.4396875000000016 13.09765625 2.4496874999999996 13.09765625 1.4296875 13.09765625 C0.439687499999998 14.58265625 0.439687499999998 14.58265625 -0.5703125 16.09765625 C-0.5703125 15.10765625 -0.5703125 14.11765625 -0.5703125 13.09765625 C-1.2303125000000001 12.76765625 -1.8903125000000003 12.43765625 -2.5703125 12.09765625 C-3.909330418182254 13.208922835798909 -3.909330418182254 13.208922835798909 -3.66796875 16.0390625 C-3.656367187500001 17.2340234375 -3.644765625 18.428984375 -3.6328125 19.66015625 C-3.6237890625 20.8576953125 -3.6147656250000004 22.055234375 -3.60546875 23.2890625 C-3.593867187500001 24.2158984375 -3.582265625 25.142734375 -3.5703125 26.09765625 C-4.8903125 25.76765625 -6.210312500000001 25.43765625 -7.5703125 25.09765625 C-7.429212641401161 22.993166869621565 -7.282270750607902 20.889068547018926 -7.1328125 18.78515625 C-7.0516015625 17.6133984375 -6.970390625 16.441640624999998 -6.88671875 15.234375 C-6.5703125 12.09765625 -6.5703125 12.09765625 -5.5703125 9.09765625 C-6.8903125 9.09765625 -8.2103125 9.09765625 -9.5703125 9.09765625 C-10.8903125 9.09765625 -12.2103125 9.09765625 -13.5703125 9.09765625 C-13.5703125 7.11765625 -13.5703125 5.13765625 -13.5703125 3.09765625 C-10.600312500000001 3.59265625 -10.600312500000001 3.59265625 -7.5703125 4.09765625 C-7.2403125 3.10765625 -6.9103125 2.11765625 -6.5703125 1.09765625 C-4.169714334123398 -0.1026428329383009 -2.676706005944247 -0.01694117725281169 0 0 Z " fill="#6C6D6A" transform="translate(16.5703125,-0.09765625)"/>
<path d="M0 0 C3.96 0 7.92 0 12 0 C10.515 1.98 10.515 1.98 9 4 C6.029999999999999 3.505 6.029999999999999 3.505 3 3 C3 4.98 3 6.96 3 9 C4.32 9 5.640000000000001 9 7 9 C7.33 8.34 7.66 7.68 8 7 C8.99 7.66 9.98 8.32 11 9 C10.67 9.99 10.34 10.98 10 12 C9.01 12.495000000000001 9.01 12.495000000000001 8 13 C7.82980524183922 17.028678031965534 7.82980524183922 17.028678031965534 8.7109375 20.90625 C9 23 9 23 7.63671875 25.359375 C6.9934765625 26.14828125 6.350234374999999 26.9371875 5.6875 27.75 C5.0519921875 28.54921875 4.416484375 29.3484375 3.76171875 30.171875 C3.1803515625 30.77515625 2.5989843749999997 31.3784375 2 32 C1.3399999999999999 32 0.6799999999999999 32 0 32 C0 21.439999999999998 0 10.879999999999999 0 0 Z " fill="#585958" transform="translate(0,0)"/>
<path d="M0 0 C0.9900000000000002 0 1.9800000000000004 0 3 0 C3.9129730787856296 4.970631206721761 3.9129730787856296 9.029368793278238 3 14 C3.99 14.329999999999998 4.98 14.66 6 15 C5.916210937500001 14.084765625 5.832421875 13.169531249999999 5.74609375 12.2265625 C5.644257812499999 11.038046875 5.5424218750000005 9.849531249999998 5.4375 8.625 C5.3330859375 7.441640624999998 5.228671875 6.25828125 5.12109375 5.0390625 C5 2 5 2 6 0 C8 1 8 1 8.632568359375 2.8193359375 C9.219486004582542 6.302623915568937 8.831554517187927 9.749198695899619 8.5625 13.25 C8.51029296875 13.995078125 8.4580859375 14.740156249999998 8.404296875 15.5078125 C8.275178303209598 17.33894860902753 8.13834886206526 19.169538132675 8 21 C3.710000000000001 21 -0.5800000000000001 21 -5 21 C-4.38125 20.113125 -3.7625 19.22625 -3.125 18.3125 C-1.336883376884078 15.525141734554591 0.03674149125925563 13.152482392242433 1 10 C0.6699999999999999 9.34 0.33999999999999986 8.68 0 8 C-0.13415472365646686 5.327637904763172 -0.04318540509454216 2.6774951158616176 0 0 Z " fill="#282926" transform="translate(7,11)"/>
<path d="M0 0 C0.6806249999999991 0.07863281249999998 1.3612499999999983 0.15726562499999996 2.0625 0.23828125 C4 0.6875000000000004 4 0.6875000000000004 7 2.6875 C8.32 2.0275 9.64 1.3674999999999997 11 0.6875 C11 2.6675000000000004 11 4.6475 11 6.6875 C9.02 6.6875 7.039999999999999 6.6875 5 6.6875 C5 5.6975 5 4.7075 5 3.6875 C4.34 3.6875 3.6799999999999997 3.6875 3 3.6875 C2.6700000000000017 4.6775 2.34 5.6675 2 6.6875 C-0.9699999999999989 6.192499999999999 -0.9699999999999989 6.192499999999999 -4 5.6875 C-4 6.3475 -4 7.0075 -4 7.6875 C-4.66 7.3575 -5.32 7.0275 -6 6.6875 C-9.315505744316939 5.54422215713209 -11.619990748063797 5.84249768701595 -15 6.6875 C-15 4.7075 -15 2.7275 -15 0.6875 C-12.021484375 0.736328125 -12.021484375 0.736328125 -9.04296875 0.78515625 C-5.75322330792496 0.6279026437822637 -3.3632206132230404 -0.42677231266277227 0 0 Z " fill="#F8F7F4" transform="translate(18,2.3125)"/>
<path d="M0 0 C0.6600000000000001 0.9900000000000002 1.3200000000000003 1.9800000000000004 2 3 C2 2.34 2 1.6799999999999997 2 1 C4.8125 0.6875 4.8125 0.6875 8 1 C9.875 3.4999999999999982 9.875 3.4999999999999982 11 6 C10.34 6.66 9.68 7.32 9 8 C9 7.34 9 6.68 9 6 C8.009999999999998 6 7.02 6 6 6 C5.009999999999998 7.484999999999999 5.009999999999998 7.484999999999999 4 9 C4 8.01 4 7.02 4 6 C3.34 5.67 2.6799999999999997 5.34 2 5 C0.6609820818177461 6.111266585798912 0.6609820818177461 6.111266585798912 0.90234375 8.94140625 C0.913945312500001 10.1363671875 0.9255468750000002 11.331328124999999 0.9375 12.5625 C0.9465234374999998 13.760039062499999 0.9555468749999996 14.957578124999998 0.96484375 16.19140625 C0.976445312500001 17.1182421875 0.9880468750000002 18.045078125 1 19 C-0.3200000000000003 18.67 -1.6400000000000006 18.34 -3 18 C-2.885215867071077 15.936906242356457 -2.7577380183127076 13.874516456892238 -2.625 11.8125 C-2.5553906249999994 10.663945312499997 -2.4857812500000005 9.515390625000002 -2.4140625 8.33203125 C-2.024904262310585 5.200408827838956 -1.319014898066392 2.847141914118918 0 0 Z " fill="#999994" transform="translate(12,7)"/>
<path d="M0 0 C0.3299999999999983 0.6600000000000001 0.6600000000000001 1.3200000000000003 1 2 C1.990000000000002 1.67 2.9800000000000004 1.3399999999999999 4 1 C5.32 0.6699999999999999 6.640000000000001 0.33999999999999986 8 0 C7.34 3.960000000000001 6.68 7.920000000000002 6 12 C5.34 11.670000000000002 4.68 11.34 4 11 C3.375 8.437500000000004 3.375 8.437500000000004 3 6 C2.34 7.32 1.6799999999999997 8.64 1 10 C0.33999999999999986 10 -0.3200000000000003 10 -1 10 C-2.158376262456464 5.945683081402379 -1.8369125658995884 3.7818788121462124 0 0 Z " fill="#33302B" transform="translate(18,11)"/>
<path d="M0 0 C2 1 2 1 4 4 C4.66 2.6799999999999997 5.32 1.3599999999999994 6 0 C7.2992579133913225 4.330859711304406 8.34362100358129 8.514743524472138 9 13 C8.009999999999998 13 7.02 13 6 13 C5 11.333333333333336 4 9.666666666666664 3 8 C2.009999999999998 8 1.0199999999999996 8 0 8 C0 5.359999999999999 0 2.719999999999999 0 0 Z " fill="#818283" transform="translate(15,16)"/>
<path d="M0 0 C4.932642487046635 3.0829015544041454 4.932642487046635 3.0829015544041454 7 5 C7.4375 7.8124999999999964 7.4375 7.8124999999999964 7 10 C4.359999999999999 9.670000000000002 1.7199999999999989 9.34 -1 9 C-0.6700000000000017 6.030000000000001 -0.33999999999999986 3.0599999999999987 0 0 Z " fill="#828385" transform="translate(25,15)"/>
<path d="M0 0 C1.2065625000000004 0.030937500000000284 1.2065625000000004 0.030937500000000284 2.4375 0.0625 C2.4375 0.7225000000000001 2.4375 1.3825000000000003 2.4375 2.0625 C3.0975 2.3924999999999983 3.7575000000000003 2.7225 4.4375 3.0625 C3.4863286589537976 4.235013099654438 2.526329914229917 5.4003701512634485 1.5625 6.5625 C1.0288281250000004 7.212187499999999 0.49515624999999996 7.861875000000001 -0.0546875 8.53125 C-0.552265625 9.036562500000002 -1.04984375 9.541875000000001 -1.5625 10.0625 C-2.2225 10.0625 -2.8825000000000003 10.0625 -3.5625 10.0625 C-3.589392162163746 8.583431080993954 -3.608846214965537 7.1042251724415095 -3.625 5.625 C-3.6366015625 4.8012890625 -3.648203125 3.977578125000001 -3.66015625 3.12890625 C-3.513405858228681 0.023667960118892495 -3.125502370373491 0.07623176513106245 0 0 Z " fill="#4F504D" transform="translate(3.5625,21.9375)"/>
<path d="M0 0 C0.6600000000000001 0 1.3200000000000003 0 2 0 C2 1.9800000000000004 2 3.96 2 6 C0.019999999999999574 6 -1.9600000000000009 6 -4 6 C-4 5.01 -4 4.02 -4 3 C-4.66 3 -5.32 3 -6 3 C-6.329999999999998 3.99 -6.66 4.98 -7 6 C-7.990000000000002 5.67 -8.98 5.34 -10 5 C-9.670000000000002 4.01 -9.34 3.0199999999999996 -9 2 C-6.237357112899353 1.4026718081944551 -3.839672310046737 1 -1 1 C-0.6700000000000017 0.6699999999999999 -0.33999999999999986 0.33999999999999986 0 0 Z " fill="#FFFEFF" transform="translate(27,3)"/>
<path d="M0 0 C0 0.6600000000000001 0 1.3200000000000003 0 2 C-3 4 -3 4 -5 5 C-5 4.01 -5 3.0199999999999996 -5 2 C-5.626484375 2.0953906250000003 -6.252968750000001 2.1907812500000006 -6.8984375 2.2890625 C-8.1243359375 2.4553515624999998 -8.1243359375 2.4553515624999998 -9.375 2.625 C-10.187109375 2.741015625 -10.99921875 2.8570312500000004 -11.8359375 2.9765625 C-12.550078125 2.984296875 -13.264218750000001 2.99203125 -14 3 C-14.66 2.34 -15.32 1.6799999999999997 -16 1 C-10.10106757064733 -0.7907473446249176 -6.068208684588921 -1.0836086936765932 0 0 Z " fill="#CFBE98" transform="translate(22,3)"/>
<path d="M0 0 C2.8125 -0.3125 2.8125 -0.3125 6 0 C7.875 2.5 7.875 2.5 9 5 C8.34 5.66 7.68 6.32 7 7 C7 6.34 7 5.68 7 5 C6.009999999999998 5 5.02 5 4 5 C3.009999999999998 6.484999999999999 3.009999999999998 6.484999999999999 2 8 C2 7.01 2 6.02 2 5 C1.3399999999999999 4.67 0.6799999999999997 4.34 0 4 C-0.33000000000000007 3.34 -0.6600000000000001 2.6799999999999997 -1 2 C-0.6699999999999999 1.3399999999999999 -0.33999999999999986 0.6799999999999997 0 0 Z " fill="#B0ADA2" transform="translate(14,8)"/>
<path d="M0 0 C0.33000000000000007 0 0.6600000000000001 0 1 0 C1.6600000000000001 2.969999999999999 2.3200000000000003 5.940000000000001 3 9 C2.01 9.329999999999998 1.0199999999999996 9.66 0 10 C0 9.34 0 8.68 0 8 C-1.9800000000000004 8.329999999999998 -3.96 8.66 -6 9 C-6 8.34 -6 7.68 -6 7 C-4.68 6.670000000000002 -3.36 6.34 -2 6 C-2 5.009999999999998 -2 4.02 -2 3 C-1.3399999999999999 3 -0.6799999999999997 3 0 3 C0 2.009999999999998 0 1.0199999999999996 0 0 Z " fill="#7B7D7C" transform="translate(6,14)"/>
<path d="M0 0 C0.9100781249999983 0.009023437500000002 1.8201562500000001 0.018046875000000004 2.7578125 0.02734375 C3.4564843750000023 0.0389453125 4.155156250000001 0.050546875000000005 4.875 0.0625 C4.875 1.0525 4.875 2.0425 4.875 3.0625 C3.049687500000001 3.0315625 3.049687500000001 3.0315625 1.1875 3 C-2.0447732236907363 2.9942588397447767 -4.974347408580716 3.274836852145179 -8.125 4.0625 C-7.795 3.0725 -7.465 2.0825 -7.125 1.0625 C-4.600245381915077 -0.1998773090424617 -2.812995343115251 -0.03606404286045192 0 0 Z " fill="#878473" transform="translate(17.125,-0.0625)"/>
<path d="M0 0 C1.9995474601141296 -0.042543562981151695 4.000416363073107 -0.04080782932503979 6 0 C7 1 7 1 7.0625 4.5625 C7.041874999999997 5.696874999999999 7.021250000000002 6.831250000000001 7 8 C6.670000000000002 7.34 6.34 6.68 6 6 C5.34 6 4.68 6 4 6 C4 5.34 4 4.68 4 4 C3.34 4 2.6799999999999997 4 2 4 C1.3399999999999999 2.6799999999999997 0.6799999999999997 1.3599999999999994 0 0 Z " fill="#5A5B5A" transform="translate(25,24)"/>
<path d="M0 0 C2.3099999999999987 0.33000000000000007 4.620000000000001 0.6600000000000001 7 1 C7 2.9800000000000004 7 4.960000000000001 7 7 C3.428955608040255 5.120502951600134 1.4525569922360617 3.829468434076894 0 0 Z " fill="#616264" transform="translate(25,13)"/>
<path d="M0 0 C0.9900000000000002 0 1.9800000000000004 0 3 0 C3.3299999999999983 2.6400000000000006 3.66 5.280000000000001 4 8 C2.6799999999999997 8 1.3599999999999994 8 0 8 C-0.799531377964076 4.713037668369907 -1.0965893592098173 3.28976807762945 0 0 Z " fill="#454645" transform="translate(15,24)"/>
<path d="M0 0 C0.33000000000000007 0.9900000000000002 0.6600000000000001 1.9800000000000004 1 3 C0.33999999999999986 3 -0.3200000000000003 3 -1 3 C-1 3.990000000000002 -1 4.98 -1 6 C-2.3200000000000003 6.329999999999998 -3.64 6.66 -5 7 C-5 5.02 -5 3.039999999999999 -5 1 C-3.3499999999999996 0.6699999999999999 -1.6999999999999997 0.33999999999999986 0 0 Z " fill="#585A59" transform="translate(5,14)"/>
<path d="M0 0 C1.3200000000000003 0 2.6400000000000006 0 4 0 C3.34 3.960000000000001 2.6799999999999997 7.920000000000002 2 12 C1.3399999999999999 11.670000000000002 0.6799999999999997 11.34 0 11 C0.08378906249999929 10.373515625 0.16757812499999858 9.74703125 0.25390625 9.1015625 C0.35574218749999886 8.284296875000003 0.4575781250000013 7.467031249999998 0.5625 6.625 C0.6669140624999983 5.812890625000001 0.7713281250000001 5.000781249999999 0.87890625 4.1640625 C1.1823732757902015 1.9510081417798286 1.1823732757902015 1.9510081417798286 0 0 Z " fill="#1E1F1D" transform="translate(22,11)"/>
<path d="M0 0 C0.9900000000000002 0 1.9800000000000004 0 3 0 C3.33 2.3100000000000005 3.66 4.620000000000001 4 7 C2.6799999999999997 7 1.3599999999999994 7 0 7 C0 4.6899999999999995 0 2.379999999999999 0 0 Z " fill="#1F1F1C" transform="translate(7,11)"/>
<path d="M0 0 C2.8337488079219355 3.2033682176508833 3.5205536969369824 5.7808725330454465 4 10 C3.009999999999998 10 2.0199999999999996 10 1 10 C-0.6072563458428526 6.785487308314295 -0.057481849100277316 3.563874644217268 0 0 Z " fill="#292A28" transform="translate(18,22)"/>
<path d="M0 0 C2 1 2 1 2.6875 2.9375 C3 5 3 5 2 7 C1.0099999999999998 7 0.019999999999999574 7 -1 7 C-0.6699999999999999 4.6899999999999995 -0.33999999999999986 2.379999999999999 0 0 Z " fill="#413F37" transform="translate(13,11)"/>
<path d="M0 0 C0.6600000000000001 0.3299999999999983 1.3200000000000003 0.6600000000000001 2 1 C2.407292275616804 3.3215659710157794 2.744386767173884 5.656878699093934 3 8 C1.6799999999999997 7.670000000000002 0.35999999999999943 7.34 -1 7 C-0.6699999999999999 4.689999999999998 -0.33999999999999986 2.379999999999999 0 0 Z " fill="#787A79" transform="translate(10,18)"/>
<path d="M0 0 C1.6500000000000004 0 3.3000000000000007 0 5 0 C5 0.9900000000000002 5 1.9800000000000004 5 3 C3.0199999999999996 3.66 1.04 4.32 -1 5 C-0.6699999999999999 3.3499999999999996 -0.33999999999999997 1.6999999999999993 0 0 Z " fill="#3A3B39" transform="translate(1,10)"/>
<path d="M0 0 C1.9375 0.6875 1.9375 0.6875 4 2 C4.75 4.625 4.75 4.625 5 7 C4.009999999999998 7 3.0199999999999996 7 2 7 C0.5393714960008467 4.352610836501533 0 3.105516657080962 0 0 Z " fill="#636463" transform="translate(19,22)"/>
<path d="M0 0 C0.990000000000002 0 1.9800000000000004 0 3 0 C3 1.6500000000000004 3 3.3000000000000007 3 5 C1.3500000000000014 4.67 -0.3000000000000007 4.34 -2 4 C-1.3399999999999999 2.6799999999999997 -0.6799999999999997 1.3599999999999994 0 0 Z " fill="#41423F" transform="translate(29,7)"/>
<path d="M0 0 C0.9900000000000002 0.33000000000000007 1.9800000000000004 0.6600000000000001 3 1 C3.33 2.6500000000000004 3.66 4.300000000000001 4 6 C2.6799999999999997 6 1.3599999999999994 6 0 6 C0 4.02 0 2.04 0 0 Z " fill="#E4E4E4" transform="translate(3,3)"/>
<path d="M0 0 C0.9900000000000002 0 1.9800000000000004 0 3 0 C2.67 1.9800000000000004 2.34 3.960000000000001 2 6 C1.0099999999999998 6 0.019999999999999574 6 -1 6 C-0.6699999999999999 4.02 -0.33999999999999986 2.039999999999999 0 0 Z " fill="#4E4E4B" transform="translate(9,26)"/>
<path d="M0 0 C0.6600000000000001 0 1.3200000000000003 0 2 0 C2 1.9800000000000004 2 3.96 2 6 C0.6799999999999997 5.67 -0.6400000000000006 5.34 -2 5 C-1.3399999999999999 3.3499999999999996 -0.6799999999999997 1.6999999999999993 0 0 Z " fill="#E1E1E1" transform="translate(27,3)"/>
</svg>
