<?xml version="1.0" encoding="UTF-8"?>
<!-- Generator: visioncortex VTracer 0.6.4 -->
<svg version="1.1" xmlns="http://www.w3.org/2000/svg" width="48" height="48">
<path d="M0 0 C15.84 0 31.68 0 48 0 C48 15.84 48 31.68 48 48 C32.16 48 16.32 48 0 48 C0 32.16 0 16.32 0 0 Z " fill="#343533" transform="translate(0,0)"/>
<path d="M0 0 C1.2723046875000001 0.009023437500000002 2.5446093750000003 0.018046875000000004 3.85546875 0.02734375 C5.319199218750001 0.04474609375 5.319199218750001 0.04474609375 6.8125 0.0625 C6.8125 1.3825 6.8125 2.7025 6.8125 4.0625 C10.442499999999995 4.0625 14.072499999999998 4.0625 17.8125 4.0625 C17.8125 7.032500000000001 17.8125 10.002500000000001 17.8125 13.0625 C15.479166666666671 13.0625 13.145833333333343 13.0625 10.8125 13.0625 C10.688749999999999 13.64 10.564999999999998 14.2175 10.4375 14.8125 C9.8125 17.062500000000007 9.8125 17.062500000000007 8.7578125 18.875 C6.042690195035661 25.157927647851363 9.144145176500132 33.72275167070051 10.8125 40.0625 C10.8125 41.3825 10.8125 42.7025 10.8125 44.0625 C8.832499999999996 44.5575 8.832499999999996 44.5575 6.8125 45.0625 C2.442086137213 36.50377285204212 3.4052344762599027 29.154226040554114 5.8125 20.0625 C5.1525 20.0625 4.4925 20.0625 3.8125 20.0625 C3.8125 19.0725 3.8125 18.0825 3.8125 17.0625 C3.1525 17.0625 2.4924999999999997 17.0625 1.8125 17.0625 C-0.26081702768683357 23.54161571152136 0.9731985279183561 30.45300090735704 1.8125 37.0625 C0.8225000000000016 37.0625 -0.16750000000000043 37.0625 -1.1875 37.0625 C-1.1875 39.3725 -1.1875 41.6825 -1.1875 44.0625 C-1.5174999999999983 44.0625 -1.8475000000000001 44.0625 -2.1875 44.0625 C-2.248085937500001 43.0866796875 -2.3086718750000017 42.110859375 -2.37109375 41.10546875 C-2.4548828124999993 39.8331640625 -2.5386718749999986 38.560859375 -2.625 37.25 C-2.7062109375 35.9854296875 -2.7874218749999997 34.720859375 -2.87109375 33.41796875 C-3.0593454741402866 30.070681071183962 -3.0593454741402866 30.070681071183962 -4.1875 27.0625 C-5.1377759867313095 29.91332796019393 -5.479412157773609 32.273533735509695 -5.75 35.25 C-5.833789062499999 36.1510546875 -5.917578124999999 37.052109375 -6.00390625 37.98046875 C-6.064492187500001 38.6675390625 -6.125078125000002 39.354609375 -6.1875 40.0625 C-8.1675 40.5575 -8.1675 40.5575 -10.1875 41.0625 C-11.921218860313646 36.222534848291076 -10.412137706154038 31.48759072436649 -9.5625 26.5703125 C-9.193589405805163 23.119461316802468 -9.445040522935185 20.43450345833603 -10.1875 17.0625 C-9.1975 16.7325 -8.2075 16.4025 -7.1875 16.0625 C-6.857500000000002 14.0825 -6.5275 12.1025 -6.1875 10.0625 C-7.837499999999999 10.0625 -9.4875 10.0625 -11.1875 10.0625 C-10.1975 10.3925 -9.2075 10.7225 -8.1875 11.0625 C-8.1875 11.7225 -8.1875 12.3825 -8.1875 13.0625 C-9.156875 12.876875 -10.12625 12.69125 -11.125 12.5 C-12.135625000000001 12.355625 -13.14625 12.21125 -14.1875 12.0625 C-14.5175 12.3925 -14.8475 12.7225 -15.1875 13.0625 C-16.85367115107175 13.103138320757848 -18.521380948484197 13.105221001320919 -20.1875 13.0625 C-20.1875 10.0925 -20.1875 7.1225 -20.1875 4.0625 C-19.5275 4.0625 -18.8675 4.0625 -18.1875 4.0625 C-18.1875 4.7225 -18.1875 5.3825 -18.1875 6.0625 C-13.363078163675661 4.793034855388605 -13.363078163675661 4.793034855388605 -10.1875 1.0625 C-6.627048230403876 -0.12431725653204184 -3.749416627317892 -0.03439831768181553 0 0 Z " fill="#8E8F90" transform="translate(25.1875,-0.0625)"/>
<path d="M0 0 C5.94 0 11.88 0 18 0 C17.01 0.33 16.02 0.66 15 1 C13.849916900715694 2.9667291532809177 13.849916900715694 2.9667291532809177 13 5 C12 6 12 6 9.4375 6.0625 C8.2309375 6.0315625 8.2309375 6.0315625 7 6 C7 5.34 7 4.68 7 4 C6.34 4 5.68 4 5 4 C5 6.970000000000001 5 9.940000000000001 5 13 C7.44480078587315 12.811712282789138 7.44480078587315 12.811712282789138 10 12 C11.360201513559609 10.03241726832534 11.360201513559609 10.03241726832534 12 8 C12.33 9.32 12.66 10.64 13 12 C14.32 12.33 15.64 12.66 17 13 C17 12.34 17 11.68 17 11 C16.01 11.33 15.02 11.66 14 12 C14 11.34 14 10.68 14 10 C15.65 10 17.3 10 19 10 C19.33 10.99 19.66 11.98 20 13 C18.18750000000001 14.99999999999999 18.18750000000001 14.99999999999999 16 17 C15.01 17 14.02 17 13 17 C12.67 17.66 12.34 18.32 12 19 C11.67 19 11.34 19 11 19 C10.95875 20.258125 10.9175 21.51625 10.875 22.8125 C10.851796875 23.5201953125 10.82859375 24.227890625 10.8046875 24.95703125 C10.867455382304549 27.3135971877377 10.867455382304549 27.3135971877377 13 30 C13 35.68129413099649 11.268219457734652 38.41674704474 7.47265625 42.32421875 C5.906145992174242 44.10679938821552 4.971979764957276 45.84474052118169 4 48 C2.6799999999999997 48 1.3599999999999999 48 0 48 C0 32.16 0 16.32 0 0 Z " fill="#535452" transform="translate(0,0)"/>
<path d="M0 0 C5.280000000000001 0 10.560000000000002 0 16 0 C16 15.84 16 31.68 16 48 C14.350000000000001 47.67 12.700000000000003 47.34 11 47 C10.938125 46.278125 10.876249999999999 45.55625 10.8125 44.8125 C9.751682619116295 41.14043983540256 7.7393483260085105 39.60572157839834 5 37 C3.5625 35.0625 3.5625 35.0625 3 33 C3.6392094345921606 30.991056062710356 4.310390380951453 28.992205566140242 5 27 C5.175074514357711 24.305797751273044 5.0932461193291445 21.70413746054524 5 19 C3.45428721852808 21.31856917220788 2.2038144800991972 23.50638429122309 1 26 C0.6700000000000017 26 0.3400000000000034 26 0 26 C0.08708669457234919 24.540547118546126 0.19526907383401948 23.082341317435905 0.3125 21.625 C0.3705078125000014 20.812890625 0.42851562500000284 20.00078125 0.48828125 19.1640625 C1 17 1 17 4 15 C3.3400000000000034 14.67 2.6799999999999997 14.34 2 14 C2.6599999999999966 12.02 3.3200000000000003 10.04 4 8 C4.340312499999996 8.9590625 4.340312499999996 8.9590625 4.6875 9.9375 C5.852508959244233 12.271936606393442 5.852508959244233 12.271936606393442 8.625 12.75 C9.408749999999998 12.8325 10.192500000000003 12.915 11 13 C11 10.03 11 7.06 11 4 C9.68 4.33 8.36 4.66 7 5 C4.6588563294959116 4.726866571774523 2.3224934151199434 4.401970014155374 0 4 C0 2.6799999999999997 0 1.3599999999999999 0 0 Z " fill="#565755" transform="translate(32,0)"/>
<path d="M0 0 C1.2723046875000001 0.009023437500000002 2.5446093750000003 0.018046875000000004 3.85546875 0.02734375 C5.319199218750001 0.04474609375 5.319199218750001 0.04474609375 6.8125 0.0625 C6.8125 1.3825 6.8125 2.7025 6.8125 4.0625 C10.442499999999995 4.0625 14.072499999999998 4.0625 17.8125 4.0625 C17.8125 7.032500000000001 17.8125 10.002500000000001 17.8125 13.0625 C14.812500000000007 13.0625 11.812499999999986 13.0625 8.8125 13.0625 C8.482500000000002 11.7425 8.152500000000003 10.4225 7.8125 9.0625 C7.482500000000002 10.3825 7.152500000000003 11.7025 6.8125 13.0625 C3.437499999999993 13.25 3.437499999999993 13.25 -0.1875 13.0625 C-0.8475000000000001 12.0725 -1.5075000000000003 11.0825 -2.1875 10.0625 C-2.8475 11.7125 -3.5075000000000003 13.3625 -4.1875 15.0625 C-5.177500000000002 14.7325 -6.1675 14.4025 -7.1875 14.0625 C-6.857500000000002 12.7425 -6.5275 11.4225 -6.1875 10.0625 C-7.837499999999999 10.0625 -9.4875 10.0625 -11.1875 10.0625 C-10.1975 10.3925 -9.2075 10.7225 -8.1875 11.0625 C-8.1875 11.7225 -8.1875 12.3825 -8.1875 13.0625 C-9.156875 12.876875 -10.12625 12.69125 -11.125 12.5 C-12.135625000000001 12.355625 -13.14625 12.21125 -14.1875 12.0625 C-14.5175 12.3925 -14.8475 12.7225 -15.1875 13.0625 C-16.85367115107175 13.103138320757848 -18.521380948484197 13.105221001320919 -20.1875 13.0625 C-20.1875 10.0925 -20.1875 7.1225 -20.1875 4.0625 C-19.5275 4.0625 -18.8675 4.0625 -18.1875 4.0625 C-18.1875 4.7225 -18.1875 5.3825 -18.1875 6.0625 C-13.363078163675661 4.793034855388605 -13.363078163675661 4.793034855388605 -10.1875 1.0625 C-6.627048230403876 -0.12431725653204184 -3.749416627317892 -0.03439831768181553 0 0 Z " fill="#8E8C7E" transform="translate(25.1875,-0.0625)"/>
<path d="M0 0 C1.109682207017464 0.7418149548281114 2.2125045583174767 1.4938954727979379 3.3125 2.25 C3.9273828124999994 2.6676562500000003 4.542265624999999 3.0853125000000006 5.17578125 3.515625 C7.342903543000446 5.279022154904002 8.648587799383762 6.5279045110678595 10 9 C10.213403829485166 11.834002855563043 10.284649906520848 14.430161687651356 10.1875 17.25 C10.17396484375 17.995078125 10.160429687499999 18.74015625 10.146484375 19.5078125 C10.11127203539533 21.338854159442683 10.057468505038713 23.16952169135942 10 25 C8.350000000000001 24.67 6.700000000000003 24.340000000000003 5 24 C4.938124999999999 23.278125000000003 4.876249999999999 22.55625 4.8125 21.8125 C3.751682619116295 18.140439835402567 1.7393483260085105 16.60572157839833 -1 14 C-2.724648515439469 11.47520107614347 -3.084737866926723 10.473957560776604 -2.5390625 7.421875 C-2.2374218750000026 6.540156249999999 -1.935781249999998 5.658437499999998 -1.625 4.75 C-1.3285156250000014 3.8579687500000013 -1.0320312500000028 2.965937499999999 -0.7265625 2.046875 C-0.4867968750000031 1.3714062499999997 -0.24703124999999915 0.6959374999999994 0 0 Z " fill="#646563" transform="translate(38,23)"/>
<path d="M0 0 C0.6600000000000001 0.3299999999999983 1.3200000000000003 0.6600000000000001 2 1 C2 1.9899999999999984 2 2.9800000000000004 2 4 C2.990000000000002 3.009999999999998 3.9800000000000004 2.0199999999999996 5 1 C6.181443972073218 4.6920124127288005 6 8.147099731690439 6 12 C6.268282616827356 15.008597917278212 6.619515261754671 18.003682686318022 7 21 C6.009999999999998 21 5.02 21 4 21 C4 23.310000000000002 4 25.620000000000005 4 28 C3.6700000000000017 28 3.34 28 3 28 C2.939414062499999 27.024179687499995 2.8788281249999983 26.048359375000004 2.81640625 25.04296875 C2.6907226562499993 23.134511718749998 2.6907226562499993 23.134511718749998 2.5625 21.1875 C2.4812890625 19.9229296875 2.4000781250000003 18.658359375000003 2.31640625 17.35546875 C2.1281545258597134 14.008181071183962 2.1281545258597134 14.008181071183962 1 11 C0.04972401326868692 13.850827960193932 -0.29191215777360924 16.211033735509695 -0.5625 19.1875 C-0.6462890624999993 20.0885546875 -0.7300781249999986 20.989609375 -0.81640625 21.91796875 C-0.8769921875000009 22.605039062499998 -0.9375781250000017 23.292109374999995 -1 24 C-2.3200000000000003 24.33 -3.6400000000000006 24.659999999999997 -5 25 C-6.458398974247748 21.042945440502614 -5.6790609306279425 17.30168611555505 -5.0625 13.25 C-4.962597656250001 12.552617187499997 -4.8626953125 11.855234375000002 -4.759765625 11.13671875 C-4.513341267343762 9.423482739628056 -4.257590451563733 7.7115927525391825 -4 6 C-3.34 6 -2.6799999999999997 6 -2 6 C-2 5.34 -2 4.68 -2 4 C-1.3399999999999999 4 -0.6799999999999997 4 0 4 C0 2.6799999999999997 0 1.3599999999999994 0 0 Z " fill="#484640" transform="translate(20,16)"/>
<path d="M0 0 C1.2581249999999997 -0.020624999999999893 2.5162499999999994 -0.04124999999999979 3.8125 -0.0625 C4.5201953125 -0.0741015625000001 5.227890625000001 -0.08570312500000021 5.95703125 -0.09765625 C8.000000000000004 0 8.000000000000004 0 11 1 C11 1.6600000000000001 11 2.3200000000000003 11 3 C12.32 3 13.64 3 15 3 C15 4.98 15 6.960000000000001 15 9 C14.340000000000003 9 13.68 9 13 9 C12.670000000000002 7.68 12.340000000000003 6.359999999999999 12 5 C11.670000000000002 6.32 11.340000000000003 7.640000000000001 11 9 C7.6249999999999964 9.1875 7.6249999999999964 9.1875 4 9 C3.34 8.01 2.6799999999999997 7.02 2 6 C1.3399999999999999 7.65 0.6799999999999997 9.3 0 11 C-0.990000000000002 10.67 -1.9800000000000004 10.34 -3 10 C-2.6700000000000017 8.68 -2.34 7.359999999999999 -2 6 C-3.6499999999999986 6 -5.300000000000001 6 -7 6 C-6.01 6.33 -5.02 6.66 -4 7 C-4 7.66 -4 8.32 -4 9 C-5.65 8.67 -7.300000000000001 8.34 -9 8 C-8.67 6.35 -8.34 4.699999999999999 -8 3 C-5.6899999999999995 3 -3.379999999999999 3 -1 3 C-0.6700000000000017 2.01 -0.33999999999999986 1.0199999999999996 0 0 Z " fill="#F7F4EC" transform="translate(21,4)"/>
<path d="M0 0 C0.6600000000000001 0 1.3200000000000003 0 2 0 C2 0.9899999999999984 2 1.9800000000000004 2 3 C2.66 3 3.3200000000000003 3 4 3 C3.835000000000001 4.299375000000001 3.6700000000000017 5.598750000000003 3.5 6.9375 C2.3816374252810064 17.563893505078028 2.3816374252810064 17.563893505078028 6.125 27.37109375 C7 29 7 29 7 31 C4.689999999999998 31 2.379999999999999 31 0 31 C-0.06058593750000085 29.9751953125 -0.1211718750000017 28.950390624999997 -0.18359375 27.89453125 C-0.26805025895045276 26.53384305024271 -0.35269566519271933 25.17316656593772 -0.4375 23.8125 C-0.47681640624999844 23.138964843750003 -0.5161328125000004 22.4654296875 -0.556640625 21.771484375 C-0.7897117719039564 18.096131673822228 -1.232615719873717 14.597900067477333 -2 11 C-2.224329472591876 6.737740020754355 -2.339866638084338 3.6560416220067786 0 0 Z " fill="#2A2B28" transform="translate(27,17)"/>
<path d="M0 0 C2 2 2 2 2.1953125 4.3828125 C2.172109374999998 5.287734374999999 2.1489062499999996 6.192656249999999 2.125 7.125 C2.1069531250000004 8.035078124999998 2.088906250000001 8.945156249999997 2.0703125 9.8828125 C2.047109374999998 10.581484375000002 2.0239062499999996 11.280156250000005 2 12 C3.3200000000000003 12 4.640000000000001 12 6 12 C6 15.630000000000003 6 19.260000000000005 6 23 C2.6999999999999993 23 -0.6000000000000014 23 -4 23 C-4.19594710246632 18.101322438341967 -3.535832618393691 14.60749785518108 -2 10 C-2 8.783124999999998 -2 7.566249999999997 -2 6.3125 C-2 3 -2 3 0 0 Z " fill="#30312E" transform="translate(21,25)"/>
<path d="M0 0 C5.373056994818653 -0.44041450777201874 5.373056994818653 -0.44041450777201874 8 0 C10 2.5 10 2.5 11 5 C10.21625 5.907499999999999 9.4325 6.814999999999998 8.625 7.75 C6.699475043928542 10.051902355416871 5.1779425852506265 12.215772071225793 4 15 C2.6799999999999997 15 1.3599999999999999 15 0 15 C0 10.049999999999997 0 5.100000000000001 0 0 Z " fill="#515350" transform="translate(0,33)"/>
<path d="M0 0 C5.280000000000001 0 10.560000000000002 0 16 0 C16 3.6300000000000003 16 7.260000000000001 16 11 C14.350000000000001 11 12.700000000000003 11 11 11 C11 8.69 11 6.38 11 4 C10.2265625 4.2784375 10.2265625 4.2784375 9.4375 4.5625 C6.140912609357557 5.154195172679413 3.2775426533107535 4.5672669976883995 0 4 C0 2.6799999999999997 0 1.3599999999999999 0 0 Z " fill="#686968" transform="translate(32,0)"/>
<path d="M0 0 C1.2723046875000001 0.009023437500000002 2.5446093750000003 0.018046875000000004 3.85546875 0.02734375 C5.319199218750001 0.04474609375 5.319199218750001 0.04474609375 6.8125 0.0625 C6.482500000000002 1.3825 6.1525 2.7025 5.8125 4.0625 C5.482500000000002 3.4025 5.1525 2.7424999999999997 4.8125 2.0625 C2.4565076483580732 1.5949821234562722 2.4565076483580732 1.5949821234562722 -0.25 1.4375 C-1.1691015624999999 1.362734375 -2.0882031249999997 1.28796875 -3.03515625 1.2109375 C-4.10056640625 1.1374609375 -4.10056640625 1.1374609375 -5.1875 1.0625 C-5.1875 2.0525 -5.1875 3.0425 -5.1875 4.0625 C-6.177500000000002 4.0625 -7.1675 4.0625 -8.1875 4.0625 C-8.1875 4.7225 -8.1875 5.3825 -8.1875 6.0625 C-10.1675 6.7225 -12.1475 7.3825 -14.1875 8.0625 C-14.5175 9.7125 -14.8475 11.3625 -15.1875 13.0625 C-16.8375 13.0625 -18.4875 13.0625 -20.1875 13.0625 C-20.1875 10.0925 -20.1875 7.1225 -20.1875 4.0625 C-19.5275 4.0625 -18.8675 4.0625 -18.1875 4.0625 C-18.1875 4.7225 -18.1875 5.3825 -18.1875 6.0625 C-13.363078163675661 4.793034855388605 -13.363078163675661 4.793034855388605 -10.1875 1.0625 C-6.627048230403876 -0.12431725653204184 -3.749416627317892 -0.03439831768181553 0 0 Z " fill="#74746A" transform="translate(25.1875,-0.0625)"/>
<path d="M0 0 C7.768370358862825 5.19310237688364 7.768370358862825 5.19310237688364 10 9 C10 9.659999999999997 10 10.32 10 11 C7.689999999999998 11 5.3799999999999955 11 3 11 C3 11.659999999999997 3 12.32 3 13 C1.6799999999999997 13.329999999999998 0.35999999999999943 13.659999999999997 -1 14 C-2.624331905221702 11.499230016421265 -3.073334265978609 10.410174708015937 -2.5390625 7.421875 C-2.2374218750000026 6.540156249999999 -1.935781249999998 5.658437499999998 -1.625 4.75 C-1.3285156250000014 3.8579687500000013 -1.0320312500000028 2.965937499999999 -0.7265625 2.046875 C-0.4867968750000031 1.3714062499999997 -0.24703124999999915 0.6959374999999994 0 0 Z " fill="#7E7F82" transform="translate(38,23)"/>
<path d="M0 0 C0.3403124999999996 0.9281249999999996 0.3403124999999996 0.9281249999999996 0.6875 1.875 C2.3895584694801784 4.630713712491714 4.027096861009628 4.885161322878611 7 6 C7.990000000000002 7.484999999999999 7.990000000000002 7.484999999999999 9 9 C7.350000000000001 9 5.699999999999999 9 4 9 C4 9.990000000000002 4 10.98 4 12 C2.3333333333333215 12 0.666666666666675 12 -1 12 C-1.3299999999999983 11.009999999999998 -1.6600000000000001 10.02 -2 9 C-2.3299999999999983 9.990000000000002 -2.66 10.98 -3 12 C-3.66 12 -4.32 12 -5 12 C-5 12.66 -5 13.32 -5 14 C-5.66 14 -6.32 14 -7 14 C-7.33 12.350000000000001 -7.66 10.7 -8 9 C-5 7 -5 7 -2 7 C-1.3399999999999999 4.6899999999999995 -0.6799999999999997 2.379999999999999 0 0 Z " fill="#BCB6A6" transform="translate(23,8)"/>
<path d="M0 0 C3.1478927392909135 3.4216225427075173 3.6608679851687267 6.421717799777813 4 11 C3.67 11.659999999999997 3.34 12.32 3 13 C2.01 12.670000000000002 1.0199999999999996 12.340000000000003 0 12 C-0.33000000000000007 11.340000000000003 -0.6600000000000001 10.68 -1 10 C-4.02934490501129 9.342275719027327 -4.02934490501129 9.342275719027327 -7 9 C-7.33 9.659999999999997 -7.66 10.32 -8 11 C-8.33 10.009999999999998 -8.66 9.019999999999996 -9 8 C-8.05125 7.587499999999999 -7.1025 7.175000000000001 -6.125 6.75 C-2.9439222177531184 4.968596441941745 -2.2076088255628594 4.293478615171434 -1 1 C-0.6699999999999999 0.6700000000000017 -0.33999999999999986 0.33999999999999986 0 0 Z " fill="#717271" transform="translate(9,24)"/>
<path d="M0 0 C0 4.289999999999999 0 8.579999999999998 0 13 C-5.175781249999972 8.605468750000025 -5.175781249999972 8.605468750000025 -7 7 C-7.571054687500002 6.5011328125 -8.142109374999997 6.002265625 -8.73046875 5.48828125 C-10 4 -10 4 -10 1 C-8.68 1 -7.359999999999999 1 -6 1 C-0.625 0 -0.625 0 0 0 Z " fill="#626365" transform="translate(48,19)"/>
<path d="M0 0 C0.990000000000002 0.3299999999999983 1.9800000000000004 0.6600000000000001 3 1 C3.9340272367391833 6.417357973087263 4.208080806747692 9.804515748828962 2 15 C1.009999999999998 14.670000000000002 0.019999999999999574 14.340000000000003 -1 14 C-2.0158653515357248 10.952403945392824 -2.004334419386341 9.549067467128495 -1.625 6.4375 C-1.5347656250000004 5.652460937499999 -1.4445312500000007 4.867421874999998 -1.3515625 4.05859375 C-1 2 -1 2 0 0 Z " fill="#727373" transform="translate(16,26)"/>
<path d="M0 0 C0.3299999999999983 0 0.6600000000000001 0 1 0 C1.6600000000000001 5.280000000000001 2.3200000000000003 10.560000000000002 3 16 C2.009999999999998 16 1.0199999999999996 16 0 16 C0 18.310000000000002 0 20.620000000000005 0 23 C-0.3299999999999983 23 -0.6600000000000001 23 -1 23 C-1.8560242903218338 14.867769241942568 -2.313207230140627 7.892118785185673 0 0 Z " fill="#6D6E6F" transform="translate(24,21)"/>
<path d="M0 0 C0.33000000000000007 0.9899999999999984 0.6600000000000001 1.9800000000000004 1 3 C-0.8124999999999929 5.999999999999989 -0.8124999999999929 5.999999999999989 -3 9 C-3.99 10.485 -3.99 10.485 -5 12 C-7.624999999999996 12.6875 -7.624999999999996 12.6875 -10 13 C-10 11.02 -10 9.04 -10 7 C-8.35 7 -6.699999999999999 7 -5 7 C-5 6.009999999999998 -5 5.02 -5 4 C-4.01 4 -3.0199999999999996 4 -2 4 C-2.33 3.009999999999998 -2.66 2.0199999999999996 -3 1 C-2.01 0.6700000000000017 -1.0199999999999996 0.33999999999999986 0 0 Z " fill="#5D5E5D" transform="translate(10,19)"/>
<path d="M0 0 C1.6499999999999986 0 3.299999999999997 0 5 0 C5 2.6400000000000006 5 5.280000000000001 5 8 C1.2069627508527176 6.998065632300715 -1.7153634071664712 6.1897577285556835 -5 4 C-5 3.34 -5 2.6799999999999997 -5 2 C-3.3500000000000014 2 -1.7000000000000028 2 0 2 C0 1.3399999999999999 0 0.6799999999999997 0 0 Z " fill="#3B3B39" transform="translate(43,11)"/>
<path d="M0 0 C0.33000000000000007 0.6599999999999966 0.6600000000000001 1.3200000000000003 1 2 C0.6699999999999999 2.6599999999999966 0.33999999999999986 3.3200000000000003 0 4 C1.6500000000000004 4 3.3000000000000007 4 5 4 C3.6799999999999997 6.310000000000002 2.3599999999999994 8.620000000000005 1 11 C-0.3200000000000003 11 -1.6400000000000001 11 -3 11 C-3.080968034739474 9.54257537468947 -3.139177743501674 8.083871934282797 -3.1875 6.625 C-3.2223046875 5.812890625000001 -3.2571093749999998 5.000781250000003 -3.29296875 4.1640625 C-3.1962890625 3.449921875000001 -3.099609375 2.7357812500000023 -3 2 C-2.01 1.3400000000000034 -1.02 0.6799999999999997 0 0 Z " fill="#434441" transform="translate(3,37)"/>
<path d="M0 0 C2.5035786149299764 0.8345262049766582 4.667858521024147 1.7937199246676627 7 3 C6.67 3.66 6.34 4.32 6 5 C5.01 5 4.02 5 3 5 C3 5.66 3 6.32 3 7 C2.34 7 1.6799999999999997 7 1 7 C1.6600000000000001 8.649999999999999 2.3200000000000003 10.3 3 12 C1.3499999999999996 12 -0.30000000000000027 12 -2 12 C-2 9.689999999999998 -2 7.379999999999999 -2 5 C-1.01 5.329999999999998 -0.020000000000000018 5.66 1 6 C1 5.34 1 4.68 1 4 C0.33999999999999986 3.6700000000000017 -0.32000000000000006 3.34 -1 3 C-0.6699999999999999 2.009999999999998 -0.33999999999999986 1.0199999999999996 0 0 Z " fill="#3C3D3A" transform="translate(2,14)"/>
<path d="M0 0 C2.375 0.1875 2.375 0.1875 5 1 C6.8600792531143 4.277282493582341 7 6.1659753987289605 7 10 C5.68 10.329999999999998 4.359999999999999 10.659999999999997 3 11 C0 4.5 0 4.5 0 0 Z " fill="#626362" transform="translate(29,34)"/>
<path d="M0 0 C1.6499999999999986 0 3.3000000000000007 0 5 0 C5 3.6300000000000026 5 7.259999999999998 5 11 C3.3500000000000014 10.670000000000002 1.6999999999999993 10.340000000000003 0 10 C0 6.700000000000003 0 3.3999999999999986 0 0 Z " fill="#4A4B49" transform="translate(22,37)"/>
<path d="M0 0 C0.3299999999999983 0 0.6599999999999966 0 1 0 C1.3690205011389551 11.521640091116176 1.3690205011389551 11.521640091116176 -1 17 C-1.990000000000002 16.340000000000003 -2.979999999999997 15.68 -4 15 C-3.8864848278471342 13.186744486926592 -3.758870386105812 11.374366432638972 -3.625 9.5625 C-3.555390625000001 8.553164062500002 -3.4857812500000023 7.543828125000001 -3.4140625 6.50390625 C-3.2774218750000017 5.677617187500001 -3.1407812500000034 4.851328125000002 -3 4 C-2.3400000000000034 3.6700000000000017 -1.6799999999999997 3.34 -1 3 C-0.6700000000000017 2.009999999999998 -0.3400000000000034 1.0199999999999996 0 0 Z " fill="#181916" transform="translate(37,16)"/>
<path d="M0 0 C3.3000000000000007 0 6.600000000000001 0 10 0 C10 1.9800000000000004 10 3.960000000000001 10 6 C9.340000000000003 6 8.68 6 8 6 C7.670000000000002 4.68 7.340000000000003 3.3599999999999994 7 2 C6.670000000000002 3.3200000000000003 6.340000000000003 4.640000000000001 6 6 C3.6899999999999977 6 1.379999999999999 6 -1 6 C-1.3299999999999983 4.68 -1.6600000000000001 3.3599999999999994 -2 2 C-0.5150000000000006 2.99 -0.5150000000000006 2.99 1 4 C1.3299999999999983 3.01 1.6600000000000001 2.0199999999999996 2 1 C1.3399999999999999 0.6699999999999999 0.6799999999999997 0.33999999999999986 0 0 Z " fill="#FEFEFE" transform="translate(26,7)"/>
<path d="M0 0 C0.6599999999999966 0 1.3200000000000003 0 2 0 C2 2.9700000000000006 2 5.940000000000001 2 9 C0.33388094848420025 9.042721001320919 -1.333828848928249 9.040638320757848 -3 9 C-4 8 -4 8 -4.0625 5.4375 C-4.041874999999997 4.633125 -4.021250000000002 3.8287499999999994 -4 3 C-2.6799999999999997 3 -1.3599999999999994 3 0 3 C0 2.01 0 1.0199999999999996 0 0 Z " fill="#E9E9E8" transform="translate(41,4)"/>
<path d="M0 0 C0.6600000000000001 0 1.3200000000000003 0 2 0 C2 0.9900000000000002 2 1.9800000000000004 2 3 C3.3200000000000003 3 4.640000000000001 3 6 3 C6.042721001320917 4.666119051515803 6.0406383207578465 6.333828848928249 6 8 C5 9 5 9 2.4375 9.0625 C1.6331249999999997 9.041875 0.8287499999999994 9.02125 0 9 C0 6.029999999999999 0 3.0599999999999996 0 0 Z " fill="#E6E7E6" transform="translate(5,4)"/>
<path d="M0 0 C2.4749999999999996 0.495000000000001 2.4749999999999996 0.495000000000001 5 1 C5.389229178049153 2.2874503581625802 5.760980361211239 3.5801959683589644 6.125 4.875 C6.333828125 5.594296875000001 6.54265625 6.313593749999999 6.7578125 7.0546875 C6.837734375 7.696640625000001 6.91765625 8.338593750000001 7 9 C6.34 9.66 5.68 10.32 5 11 C4.67 9.68 4.34 8.36 4 7 C2.6799999999999997 7.329999999999998 1.3599999999999994 7.66 0 8 C0 5.359999999999999 0 2.719999999999999 0 0 Z " fill="#1E1E1B" transform="translate(10,16)"/>
<path d="M0 0 C2.0078125 0.1328125 2.0078125 0.1328125 5.0078125 1.1328125 C5.0078125 1.7928125000000001 5.0078125 2.4528125000000003 5.0078125 3.1328125 C2.0078125 4.1328125 2.0078125 4.1328125 -1.5546875 4.0703125 C-5.058333906610457 3.7362018595543027 -5.058333906610457 3.7362018595543027 -6.9921875 6.1328125 C-7.034908501320917 4.466693448484197 -7.0328258207578465 2.79898365107175 -6.9921875 1.1328125 C-5.111597169708531 -0.7477778302914677 -2.4932871228850395 0.009200321486660723 0 0 Z " fill="#E4CC97" transform="translate(26.9921875,3.8671875)"/>
<path d="M0 0 C0.9900000000000002 0.3299999999999983 1.9800000000000004 0.6599999999999966 3 1 C4.223934749123 3.9578423103805775 3.965162427620541 5.997272447402757 3 9 C1.3499999999999996 9 -0.3000000000000007 9 -2 9 C-1.3399999999999999 6.030000000000001 -0.6799999999999997 3.0600000000000023 0 0 Z " fill="#4A4B48" transform="translate(14,39)"/>
<path d="M0 0 C0.6600000000000001 0 1.3200000000000003 0 2 0 C2 0.9899999999999984 2 1.9800000000000004 2 3 C2.66 3 3.3200000000000003 3 4 3 C3.6700000000000017 4.649999999999999 3.34 6.300000000000001 3 8 C1.3500000000000014 8.329999999999998 -0.3000000000000007 8.66 -2 9 C-2.201404759727968 5.374714324896551 -1.8577676547147668 3.1349829173311683 0 0 Z " fill="#201F18" transform="translate(27,17)"/>
<path d="M0 0 C1.6500000000000004 0 3.3000000000000007 0 5 0 C5.329999999999998 0.9900000000000002 5.66 1.9800000000000004 6 3 C4.1875 4.999999999999998 4.1875 4.999999999999998 2 7 C1.0099999999999998 7 0.019999999999999574 7 -1 7 C-1.33 7.66 -1.6600000000000001 8.32 -2 9 C-2.33 7.68 -2.66 6.359999999999999 -3 5 C0 3 0 3 3 3 C3 2.34 3 1.6799999999999997 3 1 C2.009999999999998 1.33 1.0199999999999996 1.6600000000000001 0 2 C0 1.3399999999999999 0 0.6799999999999997 0 0 Z " fill="#676864" transform="translate(14,10)"/>
<path d="M0 0 C1.6499999999999986 0 3.299999999999997 0 5 0 C5 2.3100000000000005 5 4.620000000000001 5 7 C3.3500000000000014 7 1.7000000000000028 7 0 7 C0 4.6899999999999995 0 2.38 0 0 Z " fill="#7F8183" transform="translate(43,4)"/>
<path d="M0 0 C1.6500000000000001 0 3.3000000000000003 0 5 0 C5 1.3200000000000003 5 2.6400000000000006 5 4 C4.01 4 3.02 4 2 4 C2.33 5.98 2.66 7.960000000000001 3 10 C2.01 9.670000000000002 1.02 9.34 0 9 C0 6.030000000000001 0 3.0599999999999987 0 0 Z " fill="#484A48" transform="translate(0,10)"/>
<path d="M0 0 C-0.990000000000002 0.33 -1.9800000000000004 0.66 -3 1 C-4.150083099284306 2.9667291532809177 -4.150083099284306 2.9667291532809177 -5 5 C-6 6 -6 6 -8.5625 6.0625 C-9.7690625 6.0315625 -9.7690625 6.0315625 -11 6 C-11 5.01 -11 4.02 -11 3 C-7.142434934601038 0.8469404286145323 -4.448702149936519 -0.3925325426414575 0 0 Z " fill="#616261" transform="translate(18,0)"/>
<path d="M0 0 C2.6400000000000006 0.3299999999999983 5.280000000000001 0.6599999999999966 8 1 C8 2.6499999999999986 8 4.299999999999997 8 6 C7.670000000000002 5.340000000000003 7.340000000000003 4.68 7 4 C4.030000000000001 4 1.0600000000000023 4 -2 4 C-1.3400000000000034 2.6799999999999997 -0.6799999999999997 1.3599999999999994 0 0 Z " fill="#6F7071" transform="translate(40,33)"/>
<path d="M0 0 C2.8337488079219355 3.2033682176508833 3.5205536969369824 5.7808725330454465 4 10 C3.01 9.670000000000002 2.0199999999999996 9.340000000000003 1 9 C1 8.340000000000003 1 7.68 1 7 C0.009999999999999787 6.670000000000002 -0.9800000000000004 6.34 -2 6 C-2.33 5.009999999999998 -2.66 4.02 -3 3 C-2.01 2.009999999999998 -1.0199999999999996 1.0199999999999996 0 0 Z " fill="#848686" transform="translate(9,24)"/>
<path d="M0 0 C0.3299999999999983 0.6600000000000001 0.6600000000000001 1.3200000000000003 1 2 C1.990000000000002 1.6700000000000017 2.9800000000000004 1.3399999999999999 4 1 C3.6700000000000017 3.969999999999999 3.34 6.940000000000001 3 10 C2.009999999999998 9.670000000000002 1.0199999999999996 9.340000000000003 0 9 C-1.125 2.25 -1.125 2.25 0 0 Z " fill="#34322C" transform="translate(26,24)"/>
<path d="M0 0 C0.9899999999999984 0.3299999999999983 1.9800000000000004 0.6600000000000001 3 1 C3.3299999999999983 3.6400000000000006 3.66 6.280000000000001 4 9 C2.6799999999999997 8.670000000000002 1.3599999999999994 8.340000000000003 0 8 C-1.125 2.25 -1.125 2.25 0 0 Z " fill="#868787" transform="translate(16,26)"/>
<path d="M0 0 C0.3299999999999983 0 0.6599999999999966 0 1 0 C1.6599999999999966 2.9700000000000006 2.3200000000000003 5.940000000000001 3 9 C-1.75 8.25 -1.75 8.25 -4 6 C-3.6700000000000017 5.01 -3.34 4.02 -3 3 C-3 3.66 -3 4.32 -3 5 C-2.34 5 -1.6799999999999997 5 -1 5 C-0.6700000000000017 3.3499999999999996 -0.3400000000000034 1.6999999999999993 0 0 Z " fill="#7E7D72" transform="translate(33,8)"/>
<path d="M0 0 C2.3100000000000023 0 4.620000000000001 0 7 0 C7 0.6600000000000001 7 1.3200000000000003 7 2 C6.030625000000001 2.1237499999999994 5.061250000000001 2.2475000000000005 4.0625 2.375 C3.051874999999999 2.58125 2.041249999999998 2.7874999999999996 1 3 C0.6700000000000017 3.66 0.33999999999999986 4.32 0 5 C-0.6600000000000001 5 -1.3200000000000003 5 -2 5 C-2.3299999999999983 5.66 -2.66 6.32 -3 7 C-3 6.34 -3 5.68 -3 5 C-3.990000000000002 4.67 -4.98 4.34 -6 4 C-5.01 4 -4.02 4 -3 4 C-3 3.34 -3 2.6799999999999997 -3 2 C-2.009999999999998 2 -1.0199999999999996 2 0 2 C0 1.3399999999999999 0 0.6799999999999997 0 0 Z " fill="#BAAA84" transform="translate(20,2)"/>
<path d="M0 0 C3.4115825552827204 1.1371941850942413 4.118546006049279 2.043429438077439 6 5 C6 5.659999999999997 6 6.32 6 7 C3.6899999999999977 7 1.3800000000000026 7 -1 7 C-1 6.009999999999998 -1 5.019999999999996 -1 4 C-0.3400000000000034 4 0.3200000000000003 4 1 4 C0.6700000000000017 2.6799999999999997 0.3400000000000034 1.3599999999999994 0 0 Z " fill="#939397" transform="translate(42,27)"/>
<path d="M0 0 C4.29 0 8.58 0 13 0 C12.67 0.66 12.34 1.32 12 2 C8.062445814220343 2.9843885464449142 4.8943245936581 3.22393058657826 1 2 C0.6699999999999999 1.3399999999999999 0.33999999999999997 0.6799999999999999 0 0 Z " fill="#484A48" transform="translate(0,0)"/>
<path d="M0 0 C2.8125 -0.3125 2.8125 -0.3125 6 0 C7.875 2.5 7.875 2.5 9 5 C8.01 5.329999999999998 7.02 5.659999999999997 6 6 C4.499999999999996 4.624999999999993 4.499999999999996 4.624999999999993 3 3 C3 2.3400000000000034 3 1.6799999999999997 3 1 C2.01 1.3299999999999983 1.02 1.6599999999999966 0 2 C0 1.3400000000000034 0 0.6799999999999997 0 0 Z " fill="#5F605E" transform="translate(2,33)"/>
<path d="M0 0 C2.6666666666666643 0 5.333333333333336 0 8 0 C8 0.6600000000000001 8 1.3200000000000003 8 2 C7.340000000000003 2 6.68 2 6 2 C5.670000000000002 2.66 5.340000000000003 3.3200000000000003 5 4 C4.340000000000003 3.6700000000000017 3.6799999999999997 3.34 3 3 C2.6700000000000017 3.66 2.3400000000000034 4.32 2 5 C1.3400000000000034 4.34 0.6799999999999997 3.6799999999999997 0 3 C0 2.009999999999998 0 1.0199999999999996 0 0 Z " fill="#6B6C6E" transform="translate(38,20)"/>
<path d="M0 0 C0 0.6600000000000001 0 1.3200000000000003 0 2 C-0.990000000000002 2 -1.9800000000000004 2 -3 2 C-3 2.66 -3 3.3200000000000003 -3 4 C-8.415384615384616 6.215384615384615 -8.415384615384616 6.215384615384615 -11.375 5.125 C-11.911249999999999 4.75375 -12.4475 4.3825 -13 4 C-6.250000000000002 1.875 -6.250000000000002 1.875 -4 3 C-4 2.34 -4 1.6799999999999997 -4 1 C-2 0 -2 0 0 0 Z " fill="#8C8C81" transform="translate(20,2)"/>
<path d="M0 0 C2.969999999999999 0 5.939999999999998 0 9 0 C6 3 6 3 2.8125 3.1875 C1.4203125000000014 3.0946875 1.4203125000000014 3.0946875 0 3 C0 2.01 0 1.02 0 0 Z " fill="#5C5D5C" transform="translate(33,0)"/>
<path d="M0 0 C0.6600000000000001 0.6600000000000001 1.3200000000000003 1.3200000000000003 2 2 C1.9671241677761486 4.728694074579561 1.436022290352522 7.296661799814359 1 10 C-1.392236968889744 7.607763031110252 -1.6758630990073904 6.322403235174232 -2 3 C-1.3399999999999999 2.009999999999998 -0.6799999999999997 1.0199999999999996 0 0 Z " fill="#181813" transform="translate(21,25)"/>
<path d="M0 0 C2.4750000000000014 0.495000000000001 2.4750000000000014 0.495000000000001 5 1 C4.340000000000003 3.3099999999999987 3.6799999999999997 5.620000000000001 3 8 C2.34 7.670000000000002 1.6799999999999997 7.34 1 7 C1.3299999999999983 5.68 1.6600000000000001 4.359999999999999 2 3 C1.3399999999999999 3 0.6799999999999997 3 0 3 C0 2.009999999999998 0 1.0199999999999996 0 0 Z " fill="#9B9C96" transform="translate(29,17)"/>
<path d="M0 0 C0.6599999999999966 0.3299999999999983 1.3200000000000003 0.6600000000000001 2 1 C1.4427108743670374 4.343734753797779 0.6482611140438195 7.033129994721129 -1 10 C-1.3299999999999983 10 -1.6599999999999966 10 -2 10 C-1.8595048235628724 8.520316758800455 -1.7124517384411035 7.041254836011493 -1.5625 5.5625 C-1.4812890624999966 4.7387890625 -1.4000781250000003 3.915078125000001 -1.31640625 3.06640625 C-1 1 -1 1 0 0 Z " fill="#444541" transform="translate(34,16)"/>
<path d="M0 0 C1.6500000000000001 0 3.3000000000000003 0 5 0 C5 1.3200000000000003 5 2.6400000000000006 5 4 C3.3499999999999996 4 1.6999999999999997 4 0 4 C0 2.6799999999999997 0 1.3599999999999994 0 0 Z " fill="#6C6D6E" transform="translate(0,6)"/>
<path d="M0 0 C0.9900000000000002 0 1.9800000000000004 0 3 0 C3.33 1.3200000000000003 3.66 2.6400000000000006 4 4 C2.6799999999999997 4.329999999999998 1.3599999999999994 4.66 0 5 C-0.5625 3.0625 -0.5625 3.0625 -1 1 C-0.6699999999999999 0.6700000000000017 -0.33999999999999986 0.33999999999999986 0 0 Z " fill="#252622" transform="translate(11,23)"/>
<path d="M0 0 C1.6499999999999986 0 3.299999999999997 0 5 0 C5 0.9900000000000002 5 1.9800000000000004 5 3 C2.030000000000001 3 -0.9399999999999977 3 -4 3 C-2.6799999999999997 2.67 -1.3599999999999994 2.34 0 2 C0 1.3399999999999999 0 0.6799999999999997 0 0 Z " fill="#4F4F4E" transform="translate(43,11)"/>
<path d="M0 0 C0.6600000000000001 0.3299999999999983 1.3200000000000003 0.6600000000000001 2 1 C1.67 3.6400000000000006 1.3399999999999999 6.280000000000001 1 9 C-0.9451000030854892 6.082349995371764 -1.4527631652248925 4.374627147779833 -2 1 C-1.3399999999999999 0.6700000000000017 -0.6799999999999997 0.33999999999999986 0 0 Z " fill="#3C3D3B" transform="translate(14,27)"/>
<path d="M0 0 C1.125 1.75 1.125 1.75 2 4 C1.125 6.25 1.125 6.25 0 8 C0 7.340000000000003 0 6.68 0 6 C-0.9900000000000002 6.329999999999998 -1.9800000000000004 6.659999999999997 -3 7 C-1.125 2.25 -1.125 2.25 0 0 Z " fill="#2B2C2A" transform="translate(13,33)"/>
<path d="M0 0 C1.3200000000000003 0 2.6400000000000006 0 4 0 C4.329999999999998 0.9899999999999984 4.66 1.9800000000000004 5 3 C4.34 3 3.6799999999999997 3 3 3 C3 3.66 3 4.32 3 5 C2.34 5 1.6799999999999997 5 1 5 C0.6699999999999999 3.3500000000000014 0.33999999999999986 1.6999999999999993 0 0 Z " fill="#A1A29E" transform="translate(15,17)"/>
<path d="M0 0 C1.6500000000000004 0 3.3000000000000007 0 5 0 C5.329999999999998 0.9900000000000002 5.66 1.9800000000000004 6 3 C5.009999999999998 3.99 4.02 4.98 3 6 C2.6700000000000017 5.01 2.34 4.02 2 3 C2.3299999999999983 2.34 2.66 1.6799999999999997 3 1 C2.009999999999998 1.33 1.0199999999999996 1.6600000000000001 0 2 C0 1.3399999999999999 0 0.6799999999999997 0 0 Z " fill="#8F8B7D" transform="translate(14,10)"/>
</svg>
